<?xml version="1.0" encoding="utf-8"?>
<!-- Generator: Adobe Illustrator 24.1.3, SVG Export Plug-In . SVG Version: 6.00 Build 0)  -->
<svg version="1.1" id="Livello_1" xmlns="http://www.w3.org/2000/svg" xmlns:xlink="http://www.w3.org/1999/xlink" x="0px" y="0px"
	 viewBox="0 0 80 80" style="enable-background:new 0 0 80 80;" xml:space="preserve">
<style type="text/css">
	.st0{fill:none;stroke:#000000;stroke-width:0.25;stroke-miterlimit:10;}
	.st1{fill:#FFFFFF;}
</style>
<g>
	<path class="st0" d="M468.7,79.8c-6,0-11.5-1-16.2-3c-4.7-2-8.7-4.8-12-8.3s-5.7-7.7-7.5-12.6c-1.7-4.9-2.6-10.2-2.6-16.1
		c0-5.8,0.8-11.1,2.6-16c1.7-4.9,4.2-9.1,7.5-12.6s7.3-6.3,12-8.3c4.8-2,10.1-3,16.2-3s11.5,1,16.2,3c4.7,2,8.7,4.8,12,8.3
		s5.7,7.7,7.5,12.6c1.7,4.9,2.6,10.2,2.6,16c0,5.9-0.8,11.2-2.6,16.1c-1.7,4.9-4.2,9.1-7.5,12.6c-3.3,3.5-7.3,6.3-12,8.3
		C480.1,78.7,474.7,79.8,468.7,79.8z M468.7,66.6c3.7,0,6.9-0.8,9.7-2.3c2.7-1.5,5-3.6,6.7-6.1c1.7-2.5,3-5.4,3.9-8.6
		c0.8-3.2,1.2-6.4,1.2-9.7c0-3.2-0.4-6.4-1.2-9.7c-0.8-3.2-2.1-6.1-3.9-8.6s-4-4.5-6.7-6.1c-2.7-1.5-5.9-2.3-9.7-2.3
		s-6.9,0.8-9.7,2.3c-2.7,1.5-5,3.5-6.7,6s-3.1,5.3-3.9,8.6c-0.8,3.2-1.2,6.4-1.2,9.7c0,3.3,0.4,6.6,1.2,9.7c0.8,3.2,2.1,6,3.9,8.6
		c1.7,2.5,4,4.6,6.7,6.1C461.7,65.8,465,66.6,468.7,66.6z"/>
</g>
<g>
	<path class="st0" d="M992.8,181.8c-21.5,0-40.7-3.6-57.5-10.7s-31-16.9-42.6-29.4c-11.6-12.5-20.4-27.4-26.5-44.7
		c-6.1-17.3-9.1-36.4-9.1-57.2c0-20.5,3-39.4,9.1-56.7c6.1-17.4,14.9-32.3,26.5-44.8c11.6-12.5,25.8-22.3,42.6-29.4
		c16.9-7,36-10.6,57.5-10.6s40.7,3.6,57.5,10.7c16.8,7.1,31,16.9,42.6,29.4s20.4,27.4,26.5,44.7s9.1,36.2,9.1,56.7
		c0,20.8-3,39.9-9.1,57.2c-6.1,17.4-14.9,32.3-26.5,44.7s-25.8,22.3-42.6,29.4C1033.5,178.1,1014.3,181.8,992.8,181.8z M992.8,134.9
		c13.2,0,24.6-2.8,34.3-8.3c9.7-5.5,17.7-12.8,23.9-21.8c6.2-9,10.8-19.2,13.8-30.4c2.9-11.3,4.4-22.8,4.4-34.6
		c0-11.4-1.5-22.9-4.4-34.3c-3-11.4-7.6-21.6-13.8-30.4c-6.2-8.8-14.2-16-23.9-21.6c-9.7-5.5-21.1-8.3-34.3-8.3s-24.6,2.8-34.3,8.3
		s-17.7,12.6-23.9,21.4s-10.9,19-13.8,30.4s-4.4,22.9-4.4,34.3c0,11.8,1.5,23.3,4.4,34.6s7.6,21.4,13.8,30.4s14.2,16.3,23.9,21.8
		C968.2,132.1,979.7,134.9,992.8,134.9z"/>
</g>
<g>
	<path class="st1" d="M386.3,80V22.9l-20.7,56h-10.7l-20.6-56.6V80h-14.1V0h19.6l20.9,57l21-57h18.6v80H386.3z"/>
</g>
<g>
	<path class="st1" d="M285.2,45.6h-50.9c-0.1,5.8,1.9,11.4,5.6,14.9c2.6,2.5,6.3,4.7,11.3,4.7c5.3,0,8.5-1,11.1-3.7
		c1.6-1.6,2.9-3.7,3.7-6.4h17.5c-0.4,4.5-3.5,10.5-6.4,14c-6.4,7.6-15.9,10.7-25.6,10.7c-10.4,0-18-3.7-24-9.4
		c-7.6-7.3-11.7-18-11.7-30.4c0-12.1,3.7-22.9,11-30.4C232.5,3.8,240.6,0,251,0c11.3,0,21.5,4.5,27.8,14c5.6,8.3,6.9,17,6.6,26.5
		C285.4,40.5,285.2,44,285.2,45.6z M262.4,19c-2.5-2.6-6.3-4.4-11.5-4.4c-5.6,0-10.1,2.3-12.7,5.8c-2.6,3.4-3.8,6.9-3.9,11.8h32.9
		C267,26.6,265.3,22.2,262.4,19z"/>
</g>
<g>
	<path class="st1" d="M47.3,13.5V80H32.7V13.5H9V0H71v13.5H47.3z"/>
</g>
<g>
	<path class="st1" d="M172.7,68.1C167.4,74.6,157.6,80,146,80c-11.6,0-21.4-5.4-26.7-11.9c-5.7-7.2-8.9-15.2-8.9-28.1
		c0-12.9,3.2-21,8.9-28.1C124.7,5.4,134.5,0,146,0c11.6,0,21.4,5.4,26.7,11.9c5.7,7.2,8.9,15.2,8.9,28.1
		C181.7,52.9,178.4,61,172.7,68.1z M157.6,20.8C155.1,18.2,151,16,146,16c-5,0-9.1,2.2-11.6,4.8c-4.4,4.8-5.4,12-5.4,19.2
		s1,14.4,5.4,19.2c2.5,2.6,6.6,4.8,11.6,4.8c5,0,9.1-2.2,11.6-4.8c4.4-4.8,5.4-12,5.4-19.2S162,25.6,157.6,20.8z"/>
</g>
</svg>
